<svg width="512" height="512" viewBox="0 0 512 512" fill="none" xmlns="http://www.w3.org/2000/svg">
<g clip-path="url(#clip0_604_8)">
<rect width="512" height="512" fill="white"/>
<rect width="512" height="512" fill="black"/>
<path fill-rule="evenodd" clip-rule="evenodd" d="M255.5 0C114.336 0 0 117.458 0 262.475C0 378.62 73.1369 476.721 174.698 511.499C187.473 513.795 192.264 505.921 192.264 499.031C192.264 492.797 191.944 472.127 191.944 450.145C127.75 462.284 111.142 434.068 106.032 419.304C103.158 411.758 90.7025 388.463 79.8437 382.23C70.9012 377.308 58.1262 365.169 79.5244 364.841C99.645 364.512 114.017 383.87 118.807 391.744C141.802 431.444 178.531 420.288 193.222 413.398C195.457 396.338 202.164 384.854 209.51 378.292C152.661 371.731 93.2575 349.092 93.2575 248.695C93.2575 220.151 103.158 196.528 119.446 178.155C116.891 171.593 107.949 144.689 122.001 108.599C122.001 108.599 143.399 101.709 192.264 135.503C212.704 129.597 234.421 126.644 256.139 126.644C277.856 126.644 299.574 129.597 320.014 135.503C368.878 101.381 390.276 108.599 390.276 108.599C404.329 144.689 395.386 171.593 392.831 178.155C409.119 196.528 419.02 219.823 419.02 248.695C419.02 349.42 359.297 371.731 302.448 378.292C311.71 386.495 319.694 402.243 319.694 426.85C319.694 461.956 319.375 490.172 319.375 499.031C319.375 505.921 324.166 514.123 336.941 511.499C387.661 493.907 431.735 460.418 462.959 415.747C494.183 371.075 510.985 317.47 511 262.475C511 117.458 396.664 0 255.5 0Z" fill="white"/>
</g>
<defs>
<clipPath id="clip0_604_8">
<rect width="512" height="512" fill="white"/>
</clipPath>
</defs>
</svg>
