<svg width="512" height="512" viewBox="0 0 512 512" fill="none" xmlns="http://www.w3.org/2000/svg">
<g clip-path="url(#clip0_604_2)">
<rect width="512" height="512" fill="white"/>
<rect width="512" height="512" fill="white"/>
<path fill-rule="evenodd" clip-rule="evenodd" d="M256.5 0C115.336 0 1 117.458 1 262.475C1 378.62 74.1369 476.721 175.698 511.499C188.473 513.795 193.264 505.921 193.264 499.031C193.264 492.797 192.944 472.127 192.944 450.145C128.75 462.284 112.142 434.068 107.032 419.304C104.158 411.758 91.7025 388.463 80.8437 382.23C71.9012 377.308 59.1262 365.169 80.5244 364.841C100.645 364.512 115.017 383.87 119.807 391.744C142.802 431.444 179.531 420.288 194.222 413.398C196.457 396.338 203.164 384.854 210.51 378.292C153.661 371.731 94.2575 349.092 94.2575 248.695C94.2575 220.151 104.158 196.528 120.446 178.155C117.891 171.593 108.949 144.689 123.001 108.599C123.001 108.599 144.399 101.709 193.264 135.503C213.704 129.597 235.421 126.644 257.139 126.644C278.856 126.644 300.574 129.597 321.014 135.503C369.878 101.381 391.276 108.599 391.276 108.599C405.329 144.689 396.386 171.593 393.831 178.155C410.119 196.528 420.02 219.823 420.02 248.695C420.02 349.42 360.297 371.731 303.448 378.292C312.71 386.495 320.694 402.243 320.694 426.85C320.694 461.956 320.375 490.172 320.375 499.031C320.375 505.921 325.166 514.123 337.941 511.499C388.661 493.907 432.735 460.418 463.959 415.747C495.183 371.075 511.985 317.47 512 262.475C512 117.458 397.664 0 256.5 0Z" fill="black"/>
</g>
<defs>
<clipPath id="clip0_604_2">
<rect width="512" height="512" fill="white"/>
</clipPath>
</defs>
</svg>
