<svg width="512" height="512" viewBox="0 0 512 512" fill="none" xmlns="http://www.w3.org/2000/svg">
<g clip-path="url(#clip0)">
<path d="M292.5 76L294.496 76.1255L294.498 76.1012L294.499 76.0769L292.5 76ZM292.5 76C294.499 76.0769 294.499 76.0767 294.499 76.0765L294.499 76.0758L294.499 76.0735L294.499 76.0654L294.5 76.0353L294.504 75.9211C294.508 75.8217 294.512 75.6764 294.518 75.4905C294.529 75.1186 294.543 74.5836 294.554 73.9268C294.578 72.6142 294.594 70.8092 294.562 68.8428C294.501 65.0143 294.259 60.2344 293.416 57.4253C291.888 52.3343 290.163 48.6573 288.424 44.9498C287.561 43.1095 286.694 41.2617 285.846 39.2297C282.46 31.1159 280.009 27.2733 276.107 21.1569C275.655 20.4481 275.184 19.7088 274.689 18.9288C272.693 15.7817 270.297 12.1232 268.202 9.17777C267.157 7.70912 266.165 6.38662 265.323 5.38556C264.904 4.88751 264.494 4.43567 264.113 4.07603C263.802 3.78307 263.275 3.31666 262.633 3.10263C261.373 2.68264 259.914 2.77935 258.698 3.52406C257.425 4.30427 256.618 5.67152 256.505 7.36696C256.314 10.23 256.405 12.9303 256.489 15.4302C256.519 16.3035 256.547 17.1524 256.563 17.9752C256.624 21.2141 256.496 24.2326 255.577 27.4506C255.409 28.0389 255.131 28.3771 254.775 28.6208C254.372 28.896 253.759 29.121 252.849 29.2467C251.039 29.4966 248.723 29.2855 246.015 29.0386C245.904 29.0285 245.793 29.0184 245.681 29.0082C235.887 28.1178 225.061 32.3191 221.137 34.1957L220.899 34.3097L220.699 34.4815C220.526 34.6293 220.347 34.7831 220.161 34.9422C217.828 36.9432 214.521 39.7796 211.503 42.1863C209.871 43.4879 208.358 44.6361 207.149 45.4505C206.541 45.8598 206.049 46.1582 205.681 46.3466C205.622 46.3766 205.571 46.4015 205.527 46.4221C205.449 46.3838 205.355 46.3353 205.245 46.2749C204.783 46.0205 204.173 45.6333 203.446 45.1332C201.998 44.1381 200.225 42.7938 198.486 41.4274C196.752 40.0655 195.078 38.7012 193.835 37.676C193.214 37.1638 192.702 36.7372 192.346 36.4389C192.168 36.2899 192.029 36.1729 191.935 36.0935L191.827 36.0032L191.8 35.9804L191.794 35.9748L191.792 35.9735L191.792 35.9733L190.5 37.5C191.792 35.9732 191.792 35.973 191.791 35.9727L191.791 35.9721L191.789 35.9704L191.783 35.9656L191.764 35.9501C191.749 35.9372 191.728 35.9194 191.7 35.8969C191.646 35.8521 191.569 35.7891 191.472 35.7114C191.279 35.5564 191.006 35.3419 190.678 35.0982C190.033 34.619 189.133 33.9923 188.198 33.4891C187.731 33.2372 187.215 32.9946 186.689 32.8194C186.185 32.6514 185.541 32.5005 184.862 32.5528C184.125 32.6095 183.288 32.9194 182.691 33.7011C182.143 34.4174 182 35.2683 182 36C182 42.3607 182.164 59.6913 183.007 67.6698C183.536 75.7912 187.731 95.2318 200.542 108.869C207.154 115.907 216.505 119.405 225.297 120.981C233.886 122.521 242.175 122.271 247.398 121.536C247.481 121.558 247.577 121.585 247.685 121.616C248.093 121.734 248.655 121.916 249.267 122.165C250.565 122.693 251.782 123.406 252.421 124.228C252.988 124.956 253.602 126.611 253.986 131.253C254.36 135.771 254.5 142.693 254.5 153.5C254.5 166.818 252.65 178.926 250.601 189.235C249.803 193.247 248.979 196.971 248.22 200.4C248.002 201.383 247.79 202.341 247.586 203.275C246.673 207.439 245.903 211.149 245.516 214.252C245.166 217.048 243.464 223.355 240.987 231.564C238.534 239.697 235.38 249.503 232.213 259.173C230.065 265.733 227.902 272.253 225.947 278.144C222.169 289.536 219.169 298.578 218.56 301.015C217.526 305.149 215.884 314.403 215.315 325.271C214.747 336.122 215.239 348.767 218.589 359.591C221.388 368.634 227.97 374.758 235.242 378.401C241.603 381.587 248.627 382.947 254.427 382.685C254.349 383.928 254.218 385.211 254.075 386.612C253.492 392.312 252.712 399.956 254.515 414.742C257.668 440.595 268.676 463.885 274.866 472.653L274.929 472.742L275 472.823C280.099 478.601 294.318 491.845 304.862 499.144C310.369 502.957 318.657 505.902 327.129 507.897C335.64 509.901 344.57 511 351.5 511C365.307 511 374.537 508.428 385.606 504.906L385.799 504.845L385.975 504.746L441.419 473.778L441.472 473.752C441.546 473.717 441.654 473.665 441.794 473.597C442.074 473.462 442.48 473.264 442.991 473.01C444.011 472.504 445.448 471.778 447.122 470.893C450.461 469.129 454.778 466.718 458.609 464.164L458.807 464.033L458.968 463.859C464.323 458.075 465.575 452.739 464.918 448.106C464.377 444.296 462.528 441.109 461.292 438.978C461.092 438.633 460.908 438.316 460.748 438.029C460.03 436.735 459.038 435.397 457.542 434.363C456.031 433.318 454.135 432.673 451.754 432.565C447.102 432.353 440.464 434.181 430.591 439.219L430.543 439.243L430.497 439.27C427.658 440.916 424.89 442.529 422.188 444.104C408.424 452.126 396.367 459.153 385.267 464.445C372.001 470.768 360.318 474.5 349 474.5C338.192 474.5 330.511 472.941 324.057 469.708C317.588 466.466 312.171 461.452 306.025 454.206C302.457 449.999 299.304 443.499 297.013 437.896C295.879 435.123 294.977 432.623 294.359 430.816C294.05 429.914 293.813 429.186 293.654 428.686C293.574 428.436 293.514 428.243 293.474 428.114C293.458 428.064 293.445 428.023 293.436 427.992C291.171 417.746 288.075 392.784 293.159 373.044C328.826 360.545 342.967 332.018 344.994 305.151C345.819 294.225 343.169 277.589 339.616 261.433C336.047 245.203 331.505 229.195 328.407 219.397L328.38 219.311L328.345 219.227L312.845 182.227L312.809 182.142L312.766 182.061L287.766 135.061L287.7 134.937L287.618 134.824C285.635 132.098 282.789 128.013 280.321 124.065C279.087 122.09 277.961 120.171 277.089 118.487C276.195 116.762 275.643 115.423 275.452 114.566C275.139 113.154 275.23 111.768 275.43 110.574C275.527 109.991 275.646 109.476 275.754 109.011L275.761 108.979C275.791 108.848 275.822 108.713 275.851 108.58L282.749 103.062L282.88 102.957L282.992 102.832L281.5 101.5C282.992 102.832 282.992 102.832 282.992 102.832L282.993 102.831L282.994 102.829L282.999 102.824L283.015 102.806L283.073 102.741C283.122 102.684 283.195 102.602 283.286 102.496C283.47 102.284 283.733 101.978 284.054 101.595C284.695 100.828 285.573 99.7492 286.523 98.4943C288.391 96.0262 290.655 92.7247 291.855 89.748C292.946 87.0434 293.597 83.5959 293.977 80.9291C294.171 79.5748 294.3 78.3808 294.381 77.5242C294.421 77.0955 294.45 76.75 294.468 76.5098C294.478 76.3896 294.485 76.2957 294.489 76.2308L294.494 76.1554L294.496 76.1347L294.496 76.1286L294.496 76.1267L294.496 76.126C294.496 76.1258 294.496 76.1255 292.5 76ZM205.794 46.5361C205.794 46.5364 205.788 46.5348 205.775 46.5303C205.787 46.5335 205.793 46.5358 205.794 46.5361Z" fill="#292A2E" stroke="white" stroke-width="4"/>
<path d="M215.751 133.938L215.577 134.077L215.438 134.251C213.848 136.238 211.25 139.004 208.448 141.253C207.049 142.376 205.642 143.335 204.32 144.006C202.977 144.687 201.859 145 201 145C198.757 145 197.353 144.472 196.283 143.731C195.14 142.939 194.239 141.818 193.1 140.3C192.146 139.027 190.451 137.627 188.511 136.302C186.522 134.943 184.106 133.55 181.554 132.323C179.005 131.097 176.281 130.016 173.675 129.305C171.102 128.602 168.492 128.217 166.236 128.518C159.558 129.408 155.954 129.376 154.01 129.072C153.054 128.923 152.598 128.721 152.399 128.605C152.248 128.517 152.211 128.461 152.166 128.394L152.164 128.391L151.891 127.98L151.458 127.744C151.124 127.562 150.665 127.038 150.327 125.57C150 124.149 149.887 122.284 149.85 120.066C149.836 119.258 149.834 118.402 149.831 117.516C149.821 113.873 149.809 109.726 149.011 106.308C149.025 105.642 148.93 104.756 148.436 103.99C148.105 103.477 147.589 103.015 146.873 102.793C146.187 102.581 145.513 102.651 144.942 102.821C143.864 103.142 142.733 103.945 141.526 105.07C140.273 106.237 138.76 107.923 136.925 110.267C129.57 119.665 120.689 137.152 117.188 144.654L117.13 144.777L117.09 144.906C116.75 145.998 116.302 147.288 115.8 148.729C114.69 151.921 113.321 155.856 112.307 160.028C110.811 166.182 109.955 173.268 111.548 180.434C114.21 192.417 123.384 203.588 130.885 210.302C130.159 215.245 127.92 219.751 124.973 224.649C124.11 226.084 123.18 227.561 122.216 229.09C119.733 233.034 117.031 237.324 114.701 242.127C110.63 250.517 106.687 258.435 102.91 266.019C92.1617 287.601 82.761 306.477 75.6238 325.807C63.5295 358.563 60.4712 394.383 62.5146 411.241C64.5719 428.214 75.3498 454.411 103.106 468.289C124.11 478.791 141.613 481.474 148.749 481.508C155.396 487.249 172.918 497.475 195.915 497.5C210.317 498.709 229.404 493.918 237.12 491.401L237.234 491.364L237.343 491.314L308.297 458.335C313.924 456.056 323.262 453.144 332.931 451.832C342.716 450.504 352.394 450.879 358.992 454.728C367.901 459.924 371.489 463.252 373.558 466.16C374.606 467.632 375.307 469.054 376.131 470.749L376.183 470.856C376.989 472.516 377.903 474.395 379.321 476.587C382.279 481.158 386.674 484.803 391.859 486.01C397.137 487.239 402.915 485.867 408.338 480.987C412.959 476.827 413.878 471.509 413.232 466.779C412.614 462.26 410.565 458.128 408.795 455.576C406.262 448.547 395.912 432.872 373.42 421.224C361.666 415.137 346.077 414.826 331.651 416.73C317.158 418.642 303.47 422.841 295.254 426.144L295.173 426.177L295.096 426.216C280.971 433.378 263.911 440.726 248.633 446.596C233.303 452.485 219.94 456.818 213.148 458.031C212.536 458.141 211.963 458.255 211.395 458.367C209.525 458.739 207.718 459.099 204.781 459.237C201.278 459.402 196.187 459.242 187.772 458.307C190.403 450.494 191.344 440.149 191.498 435.589C192.003 426.472 191.499 419.957 190.724 415.238C190.094 411.408 189.28 408.759 188.744 407.015C188.62 406.613 188.511 406.259 188.423 405.951C186.541 399.362 177.442 369.51 172.415 355.415C170.996 349.858 169.276 344.017 167.454 337.831C163.621 324.818 159.34 310.28 156.471 293.66C155.953 290.661 155.451 287.904 154.978 285.304C152.803 273.365 151.229 264.72 151.5 251.04C151.685 241.67 152.496 232.75 153.737 227.457C154.357 224.814 155.013 223.473 155.638 222.729C156.148 222.121 156.746 221.781 157.726 221.509C172.635 221.999 187.685 221.986 202.2 211.1C208.165 206.626 212.67 199.76 215.874 193.161C219.09 186.537 221.091 179.982 221.956 175.916L221.971 175.847L221.981 175.776C222.975 168.65 225 152.467 225 145.5C225 142.01 224.744 139.5 224.4 137.751C224.228 136.878 224.029 136.166 223.814 135.604C223.624 135.108 223.347 134.518 222.914 134.086C221.597 132.768 220.015 132.48 218.681 132.67C217.435 132.847 216.385 133.431 215.751 133.938Z" fill="#423C3C" stroke="white" stroke-width="4"/>
<mask id="mask0" mask-type="alpha" maskUnits="userSpaceOnUse" x="334" y="420" width="131" height="96">
<path d="M338 422H336V424V512V514H338H461H463V512V424V422H461H338Z" fill="#C4C4C4" stroke="white" stroke-width="4"/>
</mask>
<g mask="url(#mask0)">
<path d="M292.5 76L294.496 76.1255L294.498 76.1012L294.499 76.0769L292.5 76ZM292.5 76C294.499 76.0769 294.499 76.0767 294.499 76.0765L294.499 76.0758L294.499 76.0735L294.499 76.0654L294.5 76.0353L294.504 75.9211C294.508 75.8217 294.512 75.6764 294.518 75.4905C294.529 75.1186 294.543 74.5836 294.554 73.9268C294.578 72.6142 294.594 70.8092 294.562 68.8428C294.501 65.0143 294.259 60.2344 293.416 57.4253C291.888 52.3343 290.163 48.6573 288.424 44.9498C287.561 43.1095 286.694 41.2617 285.846 39.2297C282.46 31.1159 280.009 27.2733 276.107 21.1569C275.655 20.4481 275.184 19.7088 274.689 18.9288C272.693 15.7817 270.297 12.1232 268.202 9.17777C267.157 7.70912 266.165 6.38662 265.323 5.38556C264.904 4.88751 264.494 4.43567 264.113 4.07603C263.802 3.78307 263.275 3.31666 262.633 3.10263C261.373 2.68264 259.914 2.77935 258.698 3.52406C257.425 4.30427 256.618 5.67152 256.505 7.36696C256.314 10.23 256.405 12.9303 256.489 15.4302C256.519 16.3035 256.547 17.1524 256.563 17.9752C256.624 21.2141 256.496 24.2326 255.577 27.4506C255.409 28.0389 255.131 28.3771 254.775 28.6208C254.372 28.896 253.759 29.121 252.849 29.2467C251.039 29.4966 248.723 29.2855 246.015 29.0386C245.904 29.0285 245.793 29.0184 245.681 29.0082C235.887 28.1178 225.061 32.3191 221.137 34.1957L220.899 34.3097L220.699 34.4815C220.526 34.6293 220.347 34.7831 220.161 34.9422C217.828 36.9432 214.521 39.7796 211.503 42.1863C209.871 43.4879 208.358 44.6361 207.149 45.4505C206.541 45.8598 206.049 46.1582 205.681 46.3466C205.622 46.3766 205.571 46.4015 205.527 46.4221C205.449 46.3838 205.355 46.3353 205.245 46.2749C204.783 46.0205 204.173 45.6333 203.446 45.1332C201.998 44.1381 200.225 42.7938 198.486 41.4274C196.752 40.0655 195.078 38.7012 193.835 37.676C193.214 37.1638 192.702 36.7372 192.346 36.4389C192.168 36.2899 192.029 36.1729 191.935 36.0935L191.827 36.0032L191.8 35.9804L191.794 35.9748L191.792 35.9735L191.792 35.9733L190.5 37.5C191.792 35.9732 191.792 35.973 191.791 35.9727L191.791 35.9721L191.789 35.9704L191.783 35.9656L191.764 35.9501C191.749 35.9372 191.728 35.9194 191.7 35.8969C191.646 35.8521 191.569 35.7891 191.472 35.7114C191.279 35.5564 191.006 35.3419 190.678 35.0982C190.033 34.619 189.133 33.9923 188.198 33.4891C187.731 33.2372 187.215 32.9946 186.689 32.8194C186.185 32.6514 185.541 32.5005 184.862 32.5528C184.125 32.6095 183.288 32.9194 182.691 33.7011C182.143 34.4174 182 35.2683 182 36C182 42.3607 182.164 59.6913 183.007 67.6698C183.536 75.7912 187.731 95.2318 200.542 108.869C207.154 115.907 216.505 119.405 225.297 120.981C233.886 122.521 242.175 122.271 247.398 121.536C247.481 121.558 247.577 121.585 247.685 121.616C248.093 121.734 248.655 121.916 249.267 122.165C250.565 122.693 251.782 123.406 252.421 124.228C252.988 124.956 253.602 126.611 253.986 131.253C254.36 135.771 254.5 142.693 254.5 153.5C254.5 166.818 252.65 178.926 250.601 189.235C249.803 193.247 248.979 196.971 248.22 200.4C248.002 201.383 247.79 202.341 247.586 203.275C246.673 207.439 245.903 211.149 245.516 214.252C245.166 217.048 243.464 223.355 240.987 231.564C238.534 239.697 235.38 249.503 232.213 259.173C230.065 265.733 227.902 272.253 225.947 278.144C222.169 289.536 219.169 298.578 218.56 301.015C217.526 305.149 215.884 314.403 215.315 325.271C214.747 336.122 215.239 348.767 218.589 359.591C221.388 368.634 227.97 374.758 235.242 378.401C241.603 381.587 248.627 382.947 254.427 382.685C254.349 383.928 254.218 385.211 254.075 386.612C253.492 392.312 252.712 399.956 254.515 414.742C257.668 440.595 268.676 463.885 274.866 472.653L274.929 472.742L275 472.823C280.099 478.601 294.318 491.845 304.862 499.144C310.369 502.957 318.657 505.902 327.129 507.897C335.64 509.901 344.57 511 351.5 511C365.307 511 374.537 508.428 385.606 504.906L385.799 504.845L385.975 504.746L441.419 473.778L441.472 473.752C441.546 473.717 441.654 473.665 441.794 473.597C442.074 473.462 442.48 473.264 442.991 473.01C444.011 472.504 445.448 471.778 447.122 470.893C450.461 469.129 454.778 466.718 458.609 464.164L458.807 464.033L458.968 463.859C464.323 458.075 465.575 452.739 464.918 448.106C464.377 444.296 462.528 441.109 461.292 438.978C461.092 438.633 460.908 438.316 460.748 438.029C460.03 436.735 459.038 435.397 457.542 434.363C456.031 433.318 454.135 432.673 451.754 432.565C447.102 432.353 440.464 434.181 430.591 439.219L430.543 439.243L430.497 439.27C427.658 440.916 424.89 442.529 422.188 444.104C408.424 452.126 396.367 459.153 385.267 464.445C372.001 470.768 360.318 474.5 349 474.5C338.192 474.5 330.511 472.941 324.057 469.708C317.588 466.466 312.171 461.452 306.025 454.206C302.457 449.999 299.304 443.499 297.013 437.896C295.879 435.123 294.977 432.623 294.359 430.816C294.05 429.914 293.813 429.186 293.654 428.686C293.574 428.436 293.514 428.243 293.474 428.114C293.458 428.064 293.445 428.023 293.436 427.992C291.171 417.746 288.075 392.784 293.159 373.044C328.826 360.545 342.967 332.018 344.994 305.151C345.819 294.225 343.169 277.589 339.616 261.433C336.047 245.203 331.505 229.195 328.407 219.397L328.38 219.311L328.345 219.227L312.845 182.227L312.809 182.142L312.766 182.061L287.766 135.061L287.7 134.937L287.618 134.824C285.635 132.098 282.789 128.013 280.321 124.065C279.087 122.09 277.961 120.171 277.089 118.487C276.195 116.762 275.643 115.423 275.452 114.566C275.139 113.154 275.23 111.768 275.43 110.574C275.527 109.991 275.646 109.476 275.754 109.011L275.761 108.979C275.791 108.848 275.822 108.713 275.851 108.58L282.749 103.062L282.88 102.957L282.992 102.832L281.5 101.5C282.992 102.832 282.992 102.832 282.992 102.832L282.993 102.831L282.994 102.829L282.999 102.824L283.015 102.806L283.073 102.741C283.122 102.684 283.195 102.602 283.286 102.496C283.47 102.284 283.733 101.978 284.054 101.595C284.695 100.828 285.573 99.7492 286.523 98.4943C288.391 96.0262 290.655 92.7247 291.855 89.748C292.946 87.0434 293.597 83.5959 293.977 80.9291C294.171 79.5748 294.3 78.3808 294.381 77.5242C294.421 77.0955 294.45 76.75 294.468 76.5098C294.478 76.3896 294.485 76.2957 294.489 76.2308L294.494 76.1554L294.496 76.1347L294.496 76.1286L294.496 76.1267L294.496 76.126C294.496 76.1258 294.496 76.1255 292.5 76ZM205.794 46.5361C205.794 46.5364 205.788 46.5348 205.775 46.5303C205.787 46.5335 205.793 46.5358 205.794 46.5361Z" fill="#292A2E" stroke="white" stroke-width="4"/>
</g>
</g>
<defs>
<clipPath id="clip0">
<rect width="512" height="512" fill="white"/>
</clipPath>
</defs>
</svg>
