<svg xmlns="http://www.w3.org/2000/svg" width="169" height="425" viewBox="0 0 169 425">
    <g fill="none" fill-rule="nonzero">
        <path d="M0 0h169v425H0z"/>
        <circle cx="15" cy="16" r="10" fill="#FFF" fill-opacity=".1"/>
        <circle cx="15" cy="41" r="5" fill="#FFF" fill-opacity=".1"/>
        <circle cx="15" cy="66" r="5" fill="#FFF" fill-opacity=".1"/>
        <circle cx="15" cy="91" r="9" fill="#FFF" fill-opacity=".1"/>
        <circle cx="15" cy="116" r="5" fill="#FFF" fill-opacity=".1"/>
        <circle cx="40" cy="16" r="5" fill="#FFF" fill-opacity=".1"/>
        <circle cx="40" cy="41" r="8" fill="#FFF" fill-opacity=".1"/>
        <circle cx="40" cy="66" r="6" fill="#FFF" fill-opacity=".1"/>
        <circle cx="40" cy="91" r="5" fill="#FFF" fill-opacity=".1"/>
        <circle cx="40" cy="116" r="7" fill="#FFF" fill-opacity=".1"/>
        <circle cx="65" cy="16" r="3" fill="#FFF" fill-opacity=".1"/>
        <circle cx="65" cy="41" r="5" fill="#FFF" fill-opacity=".1"/>
        <circle cx="65" cy="66" r="3" fill="#FFF" fill-opacity=".1"/>
        <circle cx="65" cy="91" r="3" fill="#FFF" fill-opacity=".1"/>
        <circle cx="65" cy="116" r="5" fill="#FFF" fill-opacity=".1"/>
        <circle cx="90" cy="16" r="5" fill="#FFF" fill-opacity=".1"/>
        <circle cx="90" cy="41" r="3" fill="#FFF" fill-opacity=".1"/>
        <circle cx="90" cy="66" r="5" fill="#FFF" fill-opacity=".1"/>
        <circle cx="90" cy="91" r="5" fill="#FFF" fill-opacity=".1"/>
        <circle cx="90" cy="116" r="3" fill="#FFF" fill-opacity=".1"/>
        <circle cx="115" cy="16" r="3" fill="#FFF" fill-opacity=".1"/>
        <circle cx="115" cy="41" r="5" fill="#FFF" fill-opacity=".1"/>
        <circle cx="115" cy="66" r="3" fill="#FFF" fill-opacity=".1"/>
        <circle cx="115" cy="91" r="7" fill="#FFF" fill-opacity=".1"/>
        <circle cx="115" cy="116" r="5" fill="#FFF" fill-opacity=".1"/>
        <circle cx="140" cy="16" r="2" fill="#FFF" fill-opacity=".1"/>
        <circle cx="140" cy="41" r="3" fill="#FFF" fill-opacity=".1"/>
        <circle cx="140" cy="66" r="2" fill="#FFF" fill-opacity=".1"/>
        <circle cx="140" cy="91" r="5" fill="#FFF" fill-opacity=".1"/>
        <circle cx="140" cy="116" r="3" fill="#FFF" fill-opacity=".1"/>
        <circle cx="165" cy="41" r="2" fill="#FFF" fill-opacity=".1"/>
        <circle cx="165" cy="66" r="3" fill="#FFF" fill-opacity=".1"/>
        <circle cx="15" cy="141" r="7" fill="#FFF" fill-opacity=".1"/>
        <circle cx="40" cy="141" r="6" fill="#FFF" fill-opacity=".1"/>
        <circle cx="65" cy="141" r="3" fill="#FFF" fill-opacity=".1"/>
        <circle cx="90" cy="141" r="5" fill="#FFF" fill-opacity=".1"/>
        <circle cx="115" cy="141" r="3" fill="#FFF" fill-opacity=".1"/>
        <circle cx="140" cy="141" r="2" fill="#FFF" fill-opacity=".1"/>
        <circle cx="165" cy="116" r="2" fill="#FFF" fill-opacity=".1"/>
        <circle cx="15" cy="166" r="10" fill="#FFF" fill-opacity=".1"/>
        <circle cx="15" cy="191" r="5" fill="#FFF" fill-opacity=".1"/>
        <circle cx="15" cy="216" r="7" fill="#FFF" fill-opacity=".1"/>
        <circle cx="15" cy="241" r="9" fill="#FFF" fill-opacity=".1"/>
        <circle cx="15" cy="266" r="5" fill="#FFF" fill-opacity=".1"/>
        <circle cx="40" cy="166" r="5" fill="#FFF" fill-opacity=".1"/>
        <circle cx="40" cy="191" r="8" fill="#FFF" fill-opacity=".1"/>
        <circle cx="40" cy="216" r="6" fill="#FFF" fill-opacity=".1"/>
        <circle cx="40" cy="241" r="5" fill="#FFF" fill-opacity=".1"/>
        <circle cx="40" cy="266" r="7" fill="#FFF" fill-opacity=".1"/>
        <circle cx="65" cy="166" r="3" fill="#FFF" fill-opacity=".1"/>
        <circle cx="65" cy="191" r="5" fill="#FFF" fill-opacity=".1"/>
        <circle cx="65" cy="216" r="3" fill="#FFF" fill-opacity=".1"/>
        <circle cx="65" cy="241" r="3" fill="#FFF" fill-opacity=".1"/>
        <circle cx="65" cy="266" r="5" fill="#FFF" fill-opacity=".1"/>
        <circle cx="90" cy="166" r="5" fill="#FFF" fill-opacity=".1"/>
        <circle cx="90" cy="191" r="3" fill="#FFF" fill-opacity=".1"/>
        <circle cx="90" cy="216" r="5" fill="#FFF" fill-opacity=".1"/>
        <circle cx="90" cy="241" r="5" fill="#FFF" fill-opacity=".1"/>
        <circle cx="90" cy="266" r="3" fill="#FFF" fill-opacity=".1"/>
        <circle cx="115" cy="166" r="3" fill="#FFF" fill-opacity=".1"/>
        <circle cx="115" cy="191" r="5" fill="#FFF" fill-opacity=".1"/>
        <circle cx="115" cy="216" r="3" fill="#FFF" fill-opacity=".1"/>
        <circle cx="115" cy="241" r="7" fill="#FFF" fill-opacity=".1"/>
        <circle cx="115" cy="266" r="5" fill="#FFF" fill-opacity=".1"/>
        <circle cx="140" cy="191" r="3" fill="#FFF" fill-opacity=".1"/>
        <circle cx="140" cy="216" r="2" fill="#FFF" fill-opacity=".1"/>
        <circle cx="140" cy="241" r="5" fill="#FFF" fill-opacity=".1"/>
        <circle cx="140" cy="266" r="3" fill="#FFF" fill-opacity=".1"/>
        <circle cx="165" cy="166" r="2" fill="#FFF" fill-opacity=".1"/>
        <circle cx="165" cy="191" r="2" fill="#FFF" fill-opacity=".1"/>
        <circle cx="15" cy="391" r="5" fill="#FFF" fill-opacity=".1"/>
        <circle cx="15" cy="416" r="7" fill="#FFF" fill-opacity=".1"/>
        <circle cx="40" cy="391" r="8" fill="#FFF" fill-opacity=".1"/>
        <circle cx="40" cy="416" r="6" fill="#FFF" fill-opacity=".1"/>
        <circle cx="65" cy="391" r="5" fill="#FFF" fill-opacity=".1"/>
        <circle cx="65" cy="416" r="3" fill="#FFF" fill-opacity=".1"/>
        <circle cx="90" cy="391" r="3" fill="#FFF" fill-opacity=".1"/>
        <circle cx="90" cy="416" r="5" fill="#FFF" fill-opacity=".1"/>
        <circle cx="115" cy="391" r="5" fill="#FFF" fill-opacity=".1"/>
        <circle cx="115" cy="416" r="3" fill="#FFF" fill-opacity=".1"/>
        <circle cx="140" cy="416" r="2" fill="#FFF" fill-opacity=".1"/>
        <circle cx="165" cy="416" r="3" fill="#FFF" fill-opacity=".1"/>
        <circle cx="15" cy="291" r="7" fill="#FFF" fill-opacity=".1"/>
        <circle cx="40" cy="291" r="6" fill="#FFF" fill-opacity=".1"/>
        <circle cx="65" cy="291" r="3" fill="#FFF" fill-opacity=".1"/>
        <circle cx="90" cy="291" r="5" fill="#FFF" fill-opacity=".1"/>
        <circle cx="115" cy="291" r="3" fill="#FFF" fill-opacity=".1"/>
        <circle cx="140" cy="291" r="2" fill="#FFF" fill-opacity=".1"/>
        <circle cx="165" cy="291" r="3" fill="#FFF" fill-opacity=".1"/>
        <circle cx="165" cy="241" r="2" fill="#FFF" fill-opacity=".1"/>
        <circle cx="15" cy="316" r="9" fill="#FFF" fill-opacity=".1"/>
        <circle cx="15" cy="341" r="5" fill="#FFF" fill-opacity=".1"/>
        <circle cx="40" cy="316" r="5" fill="#FFF" fill-opacity=".1"/>
        <circle cx="40" cy="341" r="7" fill="#FFF" fill-opacity=".1"/>
        <circle cx="65" cy="316" r="3" fill="#FFF" fill-opacity=".1"/>
        <circle cx="65" cy="341" r="5" fill="#FFF" fill-opacity=".1"/>
        <circle cx="90" cy="316" r="5" fill="#FFF" fill-opacity=".1"/>
        <circle cx="90" cy="341" r="3" fill="#FFF" fill-opacity=".1"/>
        <circle cx="115" cy="316" r="7" fill="#FFF" fill-opacity=".1"/>
        <circle cx="115" cy="341" r="5" fill="#FFF" fill-opacity=".1"/>
        <circle cx="140" cy="316" r="5" fill="#FFF" fill-opacity=".1"/>
        <circle cx="140" cy="341" r="3" fill="#FFF" fill-opacity=".1"/>
        <circle cx="15" cy="366" r="7" fill="#FFF" fill-opacity=".1"/>
        <circle cx="40" cy="366" r="6" fill="#FFF" fill-opacity=".1"/>
        <circle cx="65" cy="366" r="3" fill="#FFF" fill-opacity=".1"/>
        <circle cx="90" cy="366" r="5" fill="#FFF" fill-opacity=".1"/>
        <circle cx="140" cy="366" r="2" fill="#FFF" fill-opacity=".1"/>
        <circle cx="165" cy="366" r="3" fill="#FFF" fill-opacity=".1"/>
        <circle cx="165" cy="316" r="2" fill="#FFF" fill-opacity=".1"/>
    </g>
</svg>
